<?xml version="1.0" encoding="UTF-8"?>
<!DOCTYPE svg PUBLIC "-//W3C//DTD SVG 1.1//EN" "http://www.w3.org/Graphics/SVG/1.1/DTD/svg11.dtd">
<!-- Creator: CorelDRAW X7 -->
<svg xmlns="http://www.w3.org/2000/svg" xml:space="preserve" width="11.8286mm" height="11.8149mm" version="1.1" style="shape-rendering:geometricPrecision; text-rendering:geometricPrecision; image-rendering:optimizeQuality; fill-rule:evenodd; clip-rule:evenodd"
viewBox="0 0 745 744"
 xmlns:xlink="http://www.w3.org/1999/xlink">
 <defs>
  <style type="text/css">
   <![CDATA[
    .fil0 {fill:#FEFEFE}
   ]]>
  </style>
 </defs>
 <g id="Camada_x0020_1">
  <metadata id="CorelCorpID_0Corel-Layer"/>
  <g id="_2957941370976">
   <path class="fil0" d="M89 44c-5,1 -11,3 -14,6 -5,4 -9,8 -11,15l-1 4 0 51c0,3 0,5 0,8 0,40 0,45 2,50 0,1 0,2 1,3 3,6 7,11 13,14 1,0 2,1 3,1 5,2 11,2 90,2 7,0 14,0 22,0l103 0 3 -1c8,-3 14,-8 18,-15 0,-1 1,-2 1,-3 2,-5 2,-11 2,-50 0,-2 0,-5 0,-7 0,-2 0,-3 0,-5 0,-43 0,-48 -2,-53 0,-1 0,-2 -1,-3 -3,-8 -10,-13 -19,-16 -3,-1 -9,-1 -105,-1 -61,0 -103,0 -105,0l0 0zm68 27c0,0 -2,2 -2,2 -1,2 -1,4 -1,47 0,2 0,4 0,6 0,38 0,42 2,43 0,1 1,1 1,1 3,2 5,1 19,-5 7,-4 16,-8 20,-10 4,-2 18,-9 30,-15 23,-11 25,-12 26,-16 1,-3 -1,-5 -5,-7 -2,-1 -5,-3 -8,-5 -6,-3 -16,-9 -30,-16 -5,-3 -17,-10 -26,-15 -20,-10 -21,-11 -22,-11 0,0 0,0 0,0l-1 0c0,0 -2,0 -3,1z" data-paper-data="{&quot;isPathIcon&quot;:true}"/>
   <path class="fil0" d="M519 312c24,59 10,127 -35,172 -62,61 -161,61 -223,0 -45,-45 -59,-113 -34,-172 24,-59 82,-98 146,-98 63,0 121,39 146,98z" data-paper-data="{&quot;isPathIcon&quot;:true}"/>
   <path class="fil0" d="M393 157c114,11 200,108 196,223 -4,114 -96,206 -211,209 -9,0 -16,7 -16,16 0,9 8,17 17,17 131,-5 236,-110 240,-241 5,-131 -93,-244 -223,-257l-3 0c-9,0 -16,7 -17,16 0,8 6,16 15,16l2 1z" data-paper-data="{&quot;isPathIcon&quot;:true}"/>
   <path class="fil0" d="M685 383c-5,168 -144,301 -312,300 -83,0 -162,-32 -220,-91 -6,-7 -6,-17 0,-23 6,-7 17,-7 23,0 87,87 221,106 330,47 108,-59 164,-183 138,-303 -26,-120 -129,-209 -252,-218 -9,0 -16,-8 -16,-17 0,-9 8,-17 17,-16 169,10 298,152 292,321l0 0z" data-paper-data="{&quot;isPathIcon&quot;:true}"/>
   <path class="fil0" d="M393 0c92,5 178,44 243,109l0 -1c118,118 142,300 61,445 -81,145 -249,219 -411,181 -161,-39 -278,-179 -286,-344l0 -4c0,-4 2,-7 4,-10 3,-3 8,-5 12,-5 9,-1 17,6 17,16 8,183 160,326 343,325 183,-2 331,-148 336,-331 4,-183 -137,-337 -320,-348 -9,0 -16,-8 -15,-17 0,-9 7,-16 16,-16l0 0z" data-paper-data="{&quot;isPathIcon&quot;:true}"/>
  </g>
 </g>
</svg>
