<?xml version="1.0" encoding="UTF-8"?>
<!DOCTYPE svg PUBLIC "-//W3C//DTD SVG 1.1//EN" "http://www.w3.org/Graphics/SVG/1.1/DTD/svg11.dtd">
<!-- Creator: CorelDRAW X7 -->
<svg xmlns="http://www.w3.org/2000/svg" xml:space="preserve" width="65.6771mm" height="11.8149mm" version="1.1" style="shape-rendering:geometricPrecision; text-rendering:geometricPrecision; image-rendering:optimizeQuality; fill-rule:evenodd; clip-rule:evenodd"
viewBox="0 0 6568 1181"
 xmlns:xlink="http://www.w3.org/1999/xlink">
 <defs>
  <style type="text/css">
   <![CDATA[
    .fil1 {fill:#FEFEFE}
    .fil0 {fill:#FEFEFE;fill-rule:nonzero}
   ]]>
  </style>
 </defs>
 <g id="Camada_x0020_1">
  <metadata id="CorelCorpID_0Corel-Layer"/>
  <g id="_1924871468560">
   <path class="fil0" d="M0 210l251 0c52,0 100,9 143,25 42,17 79,42 109,75 31,33 54,73 71,121 16,47 25,102 25,164 0,58 -9,111 -26,159 -17,48 -41,88 -72,122 -31,34 -68,60 -111,79 -44,19 -92,28 -146,28l-244 0 0 -773zm183 177l0 419 68 0c25,0 47,-5 68,-15 20,-10 37,-24 52,-43 14,-18 25,-40 33,-66 8,-26 11,-55 11,-87 0,-67 -14,-118 -43,-154 -28,-36 -69,-54 -121,-54l-68 0z" data-paper-data="{&quot;glyphName&quot;:&quot;D&quot;,&quot;glyphIndex&quot;:0,&quot;firstGlyphOfWord&quot;:true,&quot;word&quot;:1}"/>
   <path class="fil0" d="M1074 199c2,0 4,0 6,0 2,1 4,1 7,1l4 0c3,0 8,0 14,1 7,1 13,2 20,4 6,1 12,3 18,4 6,1 10,2 12,3l-1 0c41,10 77,28 108,52 32,24 58,53 80,87 21,34 37,72 48,113 11,42 17,86 17,131 0,54 -8,105 -23,154 -15,48 -37,90 -67,127 -29,36 -65,65 -108,86 -42,21 -91,31 -145,31 -55,0 -103,-10 -146,-31 -42,-21 -78,-50 -107,-86 -29,-37 -51,-79 -66,-127 -15,-49 -23,-100 -23,-154 0,-53 8,-105 23,-153 15,-48 37,-90 66,-126 29,-36 65,-65 107,-86 43,-21 91,-31 146,-31l10 0zm-10 177c-27,0 -50,6 -71,19 -20,14 -36,31 -49,52 -13,21 -22,44 -29,71 -6,26 -10,52 -10,77 0,24 3,49 9,74 6,26 15,50 28,72 12,22 28,40 48,54 20,14 45,21 74,21 29,0 54,-7 74,-21 20,-14 37,-32 50,-54 12,-22 22,-46 27,-72 6,-25 8,-50 8,-74 0,-23 -2,-48 -8,-73 -6,-26 -15,-49 -28,-71 -12,-22 -29,-40 -49,-54 -20,-14 -45,-21 -74,-21z" data-paper-data="{&quot;glyphName&quot;:&quot;O&quot;,&quot;glyphIndex&quot;:1,&quot;word&quot;:1}"/>
   <polygon class="fil0" points="1506,210 2073,210 2073,387 1882,387 1882,983 1699,983 1699,387 1506,387 " data-paper-data="{&quot;glyphName&quot;:&quot;T&quot;,&quot;glyphIndex&quot;:2,&quot;lastGlyphOfWord&quot;:true,&quot;word&quot;:1}"/>
   <polygon class="fil0" points="3799,210 4265,210 4265,387 3982,387 3982,490 4202,490 4202,667 3982,667 3982,983 3799,983 " data-paper-data="{&quot;glyphName&quot;:&quot;F&quot;,&quot;glyphIndex&quot;:3,&quot;firstGlyphOfWord&quot;:true,&quot;word&quot;:2}"/>
   <path class="fil0" d="M4420 210l184 0 0 596 407 0 0 177 -591 0 0 -773zm407 -2l184 0 0 499 -184 0 0 -499z" data-paper-data="{&quot;glyphName&quot;:&quot;special;L_I&quot;,&quot;glyphIndex&quot;:4,&quot;word&quot;:2}"/>
   <path class="fil0" d="M5369 611c0,23 3,46 9,70 7,25 16,47 29,67 14,20 30,36 51,49 20,13 44,19 73,19 29,0 59,-7 88,-21 29,-13 58,-30 87,-48l83 160c-39,26 -79,46 -122,62 -42,16 -89,24 -140,24 -54,0 -102,-10 -145,-30 -42,-21 -78,-49 -107,-84 -29,-36 -51,-77 -66,-125 -16,-47 -23,-97 -23,-151 0,-13 0,-23 0,-29 1,-7 1,-12 2,-18 5,-45 15,-89 30,-132 15,-42 36,-80 63,-114 27,-33 60,-60 99,-81 39,-20 85,-30 138,-30 50,0 95,7 134,22 40,15 79,36 118,65l-88 157c-15,-10 -28,-20 -41,-28 -13,-9 -25,-16 -38,-22 -12,-5 -25,-9 -39,-13 -13,-3 -27,-4 -43,-4 -24,0 -45,6 -64,18 -19,13 -35,29 -49,49 -13,20 -22,43 -29,68 -7,26 -10,52 -10,78l0 22z" data-paper-data="{&quot;glyphName&quot;:&quot;C&quot;,&quot;glyphIndex&quot;:5,&quot;word&quot;:2}"/>
   <polygon class="fil0" points="6568,983 6329,983 6101,718 6101,983 5917,983 5917,210 6101,210 6099,449 6306,210 6542,210 6222,581 " data-paper-data="{&quot;glyphName&quot;:&quot;K&quot;,&quot;glyphIndex&quot;:6,&quot;lastGlyphOfWord&quot;:true,&quot;word&quot;:2}"/>
   <path class="fil1" d="M2485 70c-7,1 -16,5 -21,9 -9,6 -14,13 -18,24l-2 7 0 81c0,4 0,8 0,12 0,64 0,72 3,80 1,1 1,3 2,5 5,9 12,16 21,21 2,1 3,2 4,2 8,4 18,4 144,4 11,0 22,0 34,0l164 0 5 -2c13,-5 23,-13 28,-23 1,-3 2,-4 3,-6 3,-8 3,-16 3,-79 0,-3 0,-8 0,-12 0,-2 0,-5 0,-7 0,-68 0,-77 -3,-84 -1,-1 -1,-3 -2,-4 -6,-13 -17,-22 -31,-27 -5,-1 -13,-1 -167,-1 -96,0 -164,0 -167,0l0 0zm110 43c-2,1 -4,2 -5,4 -1,2 -1,6 -1,74 0,3 0,6 0,9 0,60 0,66 3,69 1,0 1,1 2,1 5,3 8,2 30,-8 11,-6 25,-13 32,-16 7,-3 28,-13 47,-23 38,-19 41,-20 42,-26 1,-5 -1,-8 -8,-11 -3,-2 -9,-5 -13,-8 -9,-5 -26,-14 -47,-26 -9,-5 -28,-15 -42,-23 -31,-17 -33,-18 -35,-18 0,0 0,0 -1,0l0 0c-1,0 -3,1 -4,2z" data-paper-data="{&quot;isPathIcon&quot;:true}"/>
   <path class="fil1" d="M3168 495c39,94 17,202 -54,274 -99,97 -257,97 -355,0 -72,-72 -94,-180 -55,-274 39,-94 131,-155 232,-155 102,0 193,61 232,155z" data-paper-data="{&quot;isPathIcon&quot;:true}"/>
   <path class="fil1" d="M2969 249c180,17 317,172 311,354 -7,182 -153,327 -335,332 -14,0 -26,12 -26,27 1,14 13,26 27,25 208,-7 375,-174 382,-382 7,-209 -148,-387 -355,-409l-5 0c-14,1 -25,12 -26,26 -1,14 10,26 24,26l3 1z" data-paper-data="{&quot;isPathIcon&quot;:true}"/>
   <path class="fil1" d="M3433 608c-9,267 -229,479 -497,478 -131,0 -257,-53 -349,-146 -10,-10 -10,-26 0,-37 10,-10 27,-10 37,0 139,139 352,169 523,75 172,-93 262,-289 220,-481 -42,-191 -204,-332 -400,-346 -14,0 -26,-13 -25,-27 0,-15 13,-26 27,-26 267,16 473,243 464,510l0 0z" data-paper-data="{&quot;isPathIcon&quot;:true}"/>
   <path class="fil1" d="M2969 0c145,8 283,69 386,173l0 -1c186,187 226,476 97,707 -129,230 -396,348 -653,286 -256,-60 -441,-283 -455,-545l0 -8c1,-5 3,-10 7,-15 5,-5 12,-8 19,-8 14,-1 27,11 27,25 13,291 253,519 544,517 291,-3 527,-236 534,-526 7,-291 -217,-535 -508,-552 -14,-1 -25,-13 -24,-28 0,-14 11,-25 25,-25l1 0z" data-paper-data="{&quot;isPathIcon&quot;:true}"/>
  </g>
 </g>
</svg>
